{
    "asset" : {
        "generator" : "Khronos glTF Blender I/O v3.2.43",
        "version" : "2.0"
    },
    "scene" : 0,
    "scenes" : [
        {
            "name" : "Scene",
            "nodes" : [
                3
            ]
        }
    ],
    "nodes" : [
        {
            "mesh" : 0,
            "name" : "Plane.029",
            "scale" : [
                0.23574812710285187,
                0.23866845667362213,
                1.0141029357910156
            ],
            "translation" : [
                0,
                0.9926601052284241,
                -0.058766379952430725
            ]
        },
        {
            "mesh" : 1,
            "name" : "Vert.007",
            "rotation" : [
                0.1935243010520935,
                -0.6791887283325195,
                0.1929720938205719,
                0.6811848878860474
            ],
            "scale" : [
                1.5130294561386108,
                1.5130294561386108,
                1.5130293369293213
            ],
            "translation" : [
                -0.008452899754047394,
                1.1020427942276,
                0.0014704763889312744
            ]
        },
        {
            "mesh" : 2,
            "name" : "Vert.008",
            "rotation" : [
                0.18349015712738037,
                0.6838077902793884,
                -0.18404243886470795,
                0.6818113923072815
            ],
            "scale" : [
                1.5130293369293213,
                1.5130290985107422,
                1.5130294561386108
            ],
            "translation" : [
                -0.03007989376783371,
                1.1017417907714844,
                0.0025096535682678223
            ]
        },
        {
            "children" : [
                0,
                1,
                2
            ],
            "mesh" : 3,
            "name" : "Cube.041",
            "rotation" : [
                0.0905798077583313,
                0.5713426470756531,
                -0.10026274621486664,
                0.8095123767852783
            ],
            "scale" : [
                2.1372621059417725,
                2.1372623443603516,
                2.1372625827789307
            ],
            "translation" : [
                0,
                4.555368423461914,
                -15
            ]
        }
    ],
    "animations" : [
        {
            "channels" : [
                {
                    "sampler" : 0,
                    "target" : {
                        "node" : 3,
                        "path" : "translation"
                    }
                },
                {
                    "sampler" : 1,
                    "target" : {
                        "node" : 3,
                        "path" : "rotation"
                    }
                },
                {
                    "sampler" : 2,
                    "target" : {
                        "node" : 3,
                        "path" : "scale"
                    }
                }
            ],
            "name" : "Cube.041",
            "samplers" : [
                {
                    "input" : 11,
                    "interpolation" : "LINEAR",
                    "output" : 12
                },
                {
                    "input" : 11,
                    "interpolation" : "LINEAR",
                    "output" : 13
                },
                {
                    "input" : 11,
                    "interpolation" : "LINEAR",
                    "output" : 14
                }
            ]
        },
        {
            "channels" : [
                {
                    "sampler" : 0,
                    "target" : {
                        "node" : 0,
                        "path" : "translation"
                    }
                },
                {
                    "sampler" : 1,
                    "target" : {
                        "node" : 0,
                        "path" : "rotation"
                    }
                },
                {
                    "sampler" : 2,
                    "target" : {
                        "node" : 0,
                        "path" : "scale"
                    }
                }
            ],
            "name" : "Plane.029",
            "samplers" : [
                {
                    "input" : 11,
                    "interpolation" : "LINEAR",
                    "output" : 15
                },
                {
                    "input" : 11,
                    "interpolation" : "LINEAR",
                    "output" : 16
                },
                {
                    "input" : 11,
                    "interpolation" : "LINEAR",
                    "output" : 17
                }
            ]
        },
        {
            "channels" : [
                {
                    "sampler" : 0,
                    "target" : {
                        "node" : 1,
                        "path" : "translation"
                    }
                },
                {
                    "sampler" : 1,
                    "target" : {
                        "node" : 1,
                        "path" : "rotation"
                    }
                },
                {
                    "sampler" : 2,
                    "target" : {
                        "node" : 1,
                        "path" : "scale"
                    }
                }
            ],
            "name" : "Vert.007",
            "samplers" : [
                {
                    "input" : 11,
                    "interpolation" : "LINEAR",
                    "output" : 18
                },
                {
                    "input" : 11,
                    "interpolation" : "LINEAR",
                    "output" : 19
                },
                {
                    "input" : 11,
                    "interpolation" : "LINEAR",
                    "output" : 20
                }
            ]
        },
        {
            "channels" : [
                {
                    "sampler" : 0,
                    "target" : {
                        "node" : 2,
                        "path" : "translation"
                    }
                },
                {
                    "sampler" : 1,
                    "target" : {
                        "node" : 2,
                        "path" : "rotation"
                    }
                },
                {
                    "sampler" : 2,
                    "target" : {
                        "node" : 2,
                        "path" : "scale"
                    }
                }
            ],
            "name" : "Vert.008",
            "samplers" : [
                {
                    "input" : 11,
                    "interpolation" : "LINEAR",
                    "output" : 21
                },
                {
                    "input" : 11,
                    "interpolation" : "LINEAR",
                    "output" : 22
                },
                {
                    "input" : 11,
                    "interpolation" : "LINEAR",
                    "output" : 23
                }
            ]
        }
    ],
    "materials" : [
        {
            "doubleSided" : true,
            "name" : "Kuningkotak",
            "pbrMetallicRoughness" : {
                "baseColorFactor" : [
                    1,
                    0.7257459759712219,
                    0.04791522026062012,
                    1
                ],
                "metallicFactor" : 0,
                "roughnessFactor" : 0.5
            }
        },
        {
            "doubleSided" : true,
            "name" : "KOTAK",
            "pbrMetallicRoughness" : {
                "baseColorFactor" : [
                    0.03771134093403816,
                    0.14931687712669373,
                    1,
                    1
                ],
                "metallicFactor" : 0,
                "roughnessFactor" : 0.4000000059604645
            }
        }
    ],
    "meshes" : [
        {
            "name" : "Plane.028",
            "primitives" : [
                {
                    "attributes" : {
                        "POSITION" : 0,
                        "NORMAL" : 1
                    },
                    "indices" : 2,
                    "material" : 0
                }
            ]
        },
        {
            "name" : "Vert.007",
            "primitives" : [
                {
                    "attributes" : {
                        "POSITION" : 3,
                        "NORMAL" : 4
                    },
                    "indices" : 5,
                    "material" : 0
                }
            ]
        },
        {
            "name" : "Vert.008",
            "primitives" : [
                {
                    "attributes" : {
                        "POSITION" : 6,
                        "NORMAL" : 7
                    },
                    "indices" : 5,
                    "material" : 0
                }
            ]
        },
        {
            "name" : "Cube.002",
            "primitives" : [
                {
                    "attributes" : {
                        "POSITION" : 8,
                        "NORMAL" : 9
                    },
                    "indices" : 10,
                    "material" : 1
                }
            ]
        }
    ],
    "accessors" : [
        {
            "bufferView" : 0,
            "componentType" : 5126,
            "count" : 160,
            "max" : [
                0.987716019153595,
                0.24984516203403473,
                1.0384241342544556
            ],
            "min" : [
                -1.0122840404510498,
                -8.224782943725586,
                -1.0637863874435425
            ],
            "type" : "VEC3"
        },
        {
            "bufferView" : 1,
            "componentType" : 5126,
            "count" : 160,
            "type" : "VEC3"
        },
        {
            "bufferView" : 2,
            "componentType" : 5123,
            "count" : 234,
            "type" : "SCALAR"
        },
        {
            "bufferView" : 3,
            "componentType" : 5126,
            "count" : 336,
            "max" : [
                0.05000000819563866,
                0.7090188264846802,
                0.35114771127700806
            ],
            "min" : [
                -0.05000000819563866,
                -0.03814278170466423,
                -0.10375373065471649
            ],
            "type" : "VEC3"
        },
        {
            "bufferView" : 4,
            "componentType" : 5126,
            "count" : 336,
            "type" : "VEC3"
        },
        {
            "bufferView" : 5,
            "componentType" : 5123,
            "count" : 1872,
            "type" : "SCALAR"
        },
        {
            "bufferView" : 6,
            "componentType" : 5126,
            "count" : 336,
            "max" : [
                0.05000000819563866,
                0.7090188264846802,
                0.35114771127700806
            ],
            "min" : [
                -0.05000000819563866,
                -0.03814278170466423,
                -0.10375373065471649
            ],
            "type" : "VEC3"
        },
        {
            "bufferView" : 7,
            "componentType" : 5126,
            "count" : 336,
            "type" : "VEC3"
        },
        {
            "bufferView" : 8,
            "componentType" : 5126,
            "count" : 20884,
            "max" : [
                0.9971040487289429,
                1.0474328994750977,
                0.9871399998664856
            ],
            "min" : [
                -1.0028959512710571,
                -0.9525670409202576,
                -1.0128599405288696
            ],
            "type" : "VEC3"
        },
        {
            "bufferView" : 9,
            "componentType" : 5126,
            "count" : 20884,
            "type" : "VEC3"
        },
        {
            "bufferView" : 10,
            "componentType" : 5123,
            "count" : 28212,
            "type" : "SCALAR"
        },
        {
            "bufferView" : 11,
            "componentType" : 5126,
            "count" : 20,
            "max" : [
                0.8333333333333334
            ],
            "min" : [
                0.041666666666666664
            ],
            "type" : "SCALAR"
        },
        {
            "bufferView" : 12,
            "componentType" : 5126,
            "count" : 20,
            "type" : "VEC3"
        },
        {
            "bufferView" : 13,
            "componentType" : 5126,
            "count" : 20,
            "type" : "VEC4"
        },
        {
            "bufferView" : 14,
            "componentType" : 5126,
            "count" : 20,
            "type" : "VEC3"
        },
        {
            "bufferView" : 15,
            "componentType" : 5126,
            "count" : 20,
            "type" : "VEC3"
        },
        {
            "bufferView" : 16,
            "componentType" : 5126,
            "count" : 20,
            "type" : "VEC4"
        },
        {
            "bufferView" : 17,
            "componentType" : 5126,
            "count" : 20,
            "type" : "VEC3"
        },
        {
            "bufferView" : 18,
            "componentType" : 5126,
            "count" : 20,
            "type" : "VEC3"
        },
        {
            "bufferView" : 19,
            "componentType" : 5126,
            "count" : 20,
            "type" : "VEC4"
        },
        {
            "bufferView" : 20,
            "componentType" : 5126,
            "count" : 20,
            "type" : "VEC3"
        },
        {
            "bufferView" : 21,
            "componentType" : 5126,
            "count" : 20,
            "type" : "VEC3"
        },
        {
            "bufferView" : 22,
            "componentType" : 5126,
            "count" : 20,
            "type" : "VEC4"
        },
        {
            "bufferView" : 23,
            "componentType" : 5126,
            "count" : 20,
            "type" : "VEC3"
        }
    ],
    "bufferViews" : [
        {
            "buffer" : 0,
            "byteLength" : 1920,
            "byteOffset" : 0
        },
        {
            "buffer" : 0,
            "byteLength" : 1920,
            "byteOffset" : 1920
        },
        {
            "buffer" : 0,
            "byteLength" : 468,
            "byteOffset" : 3840
        },
        {
            "buffer" : 0,
            "byteLength" : 4032,
            "byteOffset" : 4308
        },
        {
            "buffer" : 0,
            "byteLength" : 4032,
            "byteOffset" : 8340
        },
        {
            "buffer" : 0,
            "byteLength" : 3744,
            "byteOffset" : 12372
        },
        {
            "buffer" : 0,
            "byteLength" : 4032,
            "byteOffset" : 16116
        },
        {
            "buffer" : 0,
            "byteLength" : 4032,
            "byteOffset" : 20148
        },
        {
            "buffer" : 0,
            "byteLength" : 250608,
            "byteOffset" : 24180
        },
        {
            "buffer" : 0,
            "byteLength" : 250608,
            "byteOffset" : 274788
        },
        {
            "buffer" : 0,
            "byteLength" : 56424,
            "byteOffset" : 525396
        },
        {
            "buffer" : 0,
            "byteLength" : 80,
            "byteOffset" : 581820
        },
        {
            "buffer" : 0,
            "byteLength" : 240,
            "byteOffset" : 581900
        },
        {
            "buffer" : 0,
            "byteLength" : 320,
            "byteOffset" : 582140
        },
        {
            "buffer" : 0,
            "byteLength" : 240,
            "byteOffset" : 582460
        },
        {
            "buffer" : 0,
            "byteLength" : 240,
            "byteOffset" : 582700
        },
        {
            "buffer" : 0,
            "byteLength" : 320,
            "byteOffset" : 582940
        },
        {
            "buffer" : 0,
            "byteLength" : 240,
            "byteOffset" : 583260
        },
        {
            "buffer" : 0,
            "byteLength" : 240,
            "byteOffset" : 583500
        },
        {
            "buffer" : 0,
            "byteLength" : 320,
            "byteOffset" : 583740
        },
        {
            "buffer" : 0,
            "byteLength" : 240,
            "byteOffset" : 584060
        },
        {
            "buffer" : 0,
            "byteLength" : 240,
            "byteOffset" : 584300
        },
        {
            "buffer" : 0,
            "byteLength" : 320,
            "byteOffset" : 584540
        },
        {
            "buffer" : 0,
            "byteLength" : 240,
            "byteOffset" : 584860
        }
    ],
    "buffers" : [
        {
            "byteLength" : 585100,
            "uri" : "scene.bin"
        }
    ]
}
